<?xml version="1.0" encoding="UTF-8"?>
<svg xmlns="http://www.w3.org/2000/svg" id="Layer_1" viewBox="0 0 24.86 25.15">
  <defs>
    <style>.cls-1{fill:#fff;}</style>
  </defs>
  <path class="cls-1" d="m19.86,2.4c-.08-.06-.15-.11-.23-.16C17.16.52,14.04-.34,10.72.13,5.3.89.94,5.22.14,10.63c-.35,2.38-.02,4.66.82,6.68h0c.37.87,1.13,1.51,2.05,1.69.19.04.38.07.56.1.59.09,1.14.13,1.63.12,4.12-.07,5.24-3.16,5.66-4.35.13-.37.08-.78-.15-1.1-.23-.32-.6-.51-.99-.5l-2.11.03c-.2,0-.38-.07-.52-.21-.14-.14-.21-.33-.21-.52,0-.39.32-.69.7-.7l1.92-.03c.95-.02,1.77-.67,2-1.6.5-2.04,2.5-5.67,6.83-6.32.38-.06.73-.09,1.08-.12h.02c.73-.05,1-.99.41-1.42Zm-9.87,7.49c-.06.23-.27.39-.5.39l-1.83.03c-1,.02-2.08.8-2.28,1.78s.16,1.84.94,2.39c.41.29.92.4,1.42.39l1.47-.02c-.6,1.51-1.96,3.69-6.73,2.42-1.03-2.17-1.41-4.71-.77-7.39C2.67,5.84,5.9,2.63,9.95,1.69c2.7-.63,5.26-.23,7.44.84-4.65,1.05-6.83,5.06-7.39,7.36Z"></path>
  <path class="cls-1" d="m5,22.75c.08.06.15.11.23.16,2.47,1.72,5.59,2.58,8.92,2.11,5.42-.76,9.78-5.09,10.58-10.5.35-2.38.02-4.66-.82-6.68h0c-.37-.87-1.13-1.51-2.05-1.69-.19-.04-.38-.07-.56-.1-.59-.09-1.14-.13-1.63-.12-4.12.07-5.24,3.16-5.66,4.35-.13.37-.08.78.15,1.1.23.32.6.51.99.5l2.11-.03c.2,0,.38.07.52.21.14.14.21.33.21.52,0,.39-.32.69-.7.7l-1.92.03c-.95.02-1.77.67-2,1.6-.5,2.04-2.5,5.67-6.83,6.32-.38.06-.73.09-1.08.12h-.02c-.73.05-1,.99-.41,1.42Zm9.87-7.49c.06-.23.27-.39.5-.39l1.83-.03c1-.02,2.08-.8,2.28-1.78s-.16-1.84-.94-2.39c-.41-.29-.92-.4-1.42-.39l-1.47.02c.6-1.51,1.96-3.69,6.73-2.42,1.03,2.17,1.41,4.71.77,7.39-.97,4.04-4.2,7.25-8.24,8.19-2.7.63-5.26.23-7.44-.84,4.65-1.05,6.83-5.06,7.39-7.36Z"></path>
</svg>
